<?xml version="1.0" encoding="UTF-8" standalone="no"?>
<svg
   xmlns:dc="http://purl.org/dc/elements/1.1/"
   xmlns:cc="http://creativecommons.org/ns#"
   xmlns:rdf="http://www.w3.org/1999/02/22-rdf-syntax-ns#"
   xmlns:svg="http://www.w3.org/2000/svg"
   xmlns="http://www.w3.org/2000/svg"
   id="svg8"
   version="1.1"
   viewBox="0 0 67.596657 74.602448"
   height="74.602448mm"
   width="67.596657mm">
  <defs
     id="defs2" />
  <metadata
     id="metadata5">
    <rdf:RDF>
      <cc:Work
         rdf:about="">
        <dc:format>image/svg+xml</dc:format>
        <dc:type
           rdf:resource="http://purl.org/dc/dcmitype/StillImage" />
        <dc:title></dc:title>
      </cc:Work>
    </rdf:RDF>
  </metadata>
  <g
     transform="translate(-49.383722,-128.38681)"
     id="layer1">
    <path
       id="path836"
       d="m 87.875947,192.84117 c -0.94802,-0.37449 -1.76075,-1.19584 -2.97602,-3.00758 -0.58568,-0.87312 -1.48955,-2.03398 -2.0086,-2.57968 -1.41681,-1.48954 -2.18205,-1.28976 -2.53363,0.66146 -0.16227,0.90057 -0.25632,0.99218 -1.01856,0.99218 -0.71172,0 -1.18424,-0.35989 -3.09872,-2.36007 -1.4006,-1.4633 -2.55145,-2.43349 -3.02874,-2.55328 -0.68065,-0.17083 -0.87961,-0.0656 -1.71794,0.90896 -0.69453,0.80736 -1.14557,1.10107 -1.68628,1.09807 -0.77447,-0.004 -2.50544,-0.78556 -3.62748,-1.63724 -0.89693,-0.68081 -11.903509,-11.68695 -11.795465,-11.79499 0.04723,-0.0472 0.785766,0.37857 1.641191,0.94623 6.678804,4.43204 15.806574,6.66257 24.080974,5.88461 8.36055,-0.78607 14.9388,-3.55236 21.368063,-8.98571 0.48783,-0.41226 0.49722,-0.37073 0.33153,1.46542 -0.21718,2.4069 0.22536,7.94146 0.90123,11.27089 0.28775,1.4175 0.95395,3.78859 1.48044,5.26909 1.08296,3.04529 1.11482,2.93152 -1.10447,3.94313 -1.53467,0.69954 -3.373943,0.15791 -6.344113,-1.86822 -2.81566,-1.92072 -4.78453,-2.50967 -5.83125,-1.74429 -0.49013,0.3584 -0.49187,0.40647 -0.0484,1.33635 0.51535,1.0807 0.35163,1.65727 -0.65801,2.31732 -0.91567,0.59863 -1.59436,0.72625 -2.32571,0.43735 z m 18.086083,-3.4131 c -0.51333,-1.13782 -1.65478,-6.09449 -1.93246,-8.39157 -0.41431,-3.42726 -0.63659,-8.34998 -0.42739,-9.46509 l 0.1906,-1.01597 0.78548,1.437 c 0.43202,0.79034 1.14923,1.81251 1.59381,2.27149 l 0.80831,0.83449 -0.30454,4.72176 c -0.1675,2.59696 -0.32861,5.9719 -0.35802,7.49987 -0.0448,2.32547 -0.10272,2.66895 -0.35579,2.10802 z M 75.837267,175.27799 c -3.12366,-3.13939 -7.1329,-6.1578 -9.48398,-7.14014 l -0.99625,-0.41626 1.64099,-1.77629 c 6.04763,-6.54624 10.6005,-16.06267 11.8862,-24.84464 0.28614,-1.95451 0.35756,-2.10651 1.31159,-2.79155 0.55494,-0.39846 2.07919,-1.66899 3.38721,-2.82339 l 2.37824,-2.09891 0.16061,0.97131 c 0.24585,1.48681 0.19676,6.69472 -0.1056,11.20286 -0.83278,12.41693 -3.39478,24.92433 -6.52274,31.84343 l -0.48127,1.06457 z m 20.12416,-5.03234 c -0.77351,-0.58425 -3.29622,-1.48366 -4.69618,-1.67433 l -1.24077,-0.16898 -0.13783,-5.42395 c -0.19682,-7.74516 -1.3638,-18.44331 -2.83718,-26.00939 -0.30614,-1.57209 -0.49603,-2.91893 -0.42198,-2.99298 0.1576,-0.15761 2.41912,3.55091 3.57838,5.86796 3.42252,6.84069 5.98222,15.61344 6.67293,22.86982 0.32984,3.46522 0.2541,7.72423 -0.13944,7.84105 -0.14553,0.0432 -0.49559,-0.0959 -0.77793,-0.3092 z"
       style="fill:#1f72dd;fill-opacity:1;stroke-width:0.26458332" />
  </g>
</svg>
